<?xml version="1.0" standalone="no"?>
<!DOCTYPE svg PUBLIC "-//W3C//DTD SVG 20010904//EN"
 "http://www.w3.org/TR/2001/REC-SVG-20010904/DTD/svg10.dtd">
<svg version="1.0" xmlns="http://www.w3.org/2000/svg"
 width="500.000000pt" height="500.000000pt" viewBox="0 0 500.000000 500.000000"
 preserveAspectRatio="xMidYMid meet">

<g transform="translate(0.000000,500.000000) scale(0.100000,-0.100000)"
fill="#000000" stroke="none">
<path d="M1298 3203 c7 -3 16 -2 19 1 4 3 -2 6 -13 5 -11 0 -14 -3 -6 -6z"/>
<path d="M1405 3195 c22 -8 55 -30 73 -49 l32 -36 0 41 c0 22 -4 38 -8 35 -5
-3 -30 1 -57 9 -62 19 -93 19 -40 0z"/>
<path d="M1235 3186 c-42 -18 -94 -73 -116 -121 -21 -45 -25 -139 -8 -198 18
-66 110 -147 166 -147 12 0 8 5 -12 16 -75 39 -107 104 -108 220 -1 70 3 89
28 140 19 36 43 68 64 82 38 25 32 28 -14 8z"/>
<path d="M3075 3167 c-16 -39 -20 -60 -7 -39 6 8 22 -23 46 -90 20 -57 41
-112 47 -123 23 -50 58 -170 52 -176 -5 -4 -19 -9 -33 -12 -14 -2 16 -4 65 -4
50 0 80 2 68 4 -12 2 -26 10 -31 16 -5 7 -46 109 -91 227 -45 118 -86 219 -91
224 -6 6 -15 -5 -25 -27z"/>
<path d="M1770 3040 c-12 -8 -11 -10 8 -10 17 0 22 -6 22 -26 0 -19 5 -25 17
-22 25 5 29 39 7 55 -21 15 -34 16 -54 3z"/>
<path d="M2005 3045 c6 -2 22 -6 37 -9 32 -7 58 -50 58 -96 0 -26 4 -30 26
-30 24 0 26 3 20 32 -13 64 -67 109 -128 107 -13 0 -18 -2 -13 -4z"/>
<path d="M2318 3043 c6 -2 18 -2 25 0 6 3 1 5 -13 5 -14 0 -19 -2 -12 -5z"/>
<path d="M2552 3034 c-29 -9 -31 -12 -18 -23 13 -11 16 -37 16 -135 0 -66 -4
-126 -8 -132 -4 -7 -18 -14 -32 -17 -14 -2 11 -4 55 -4 44 0 68 2 53 4 l-28 4
-2 157 -3 157 -33 -11z"/>
<path d="M2660 3040 c-21 -7 -19 -8 17 -9 66 -2 74 -22 71 -172 -3 -122 -3
-123 -28 -130 -15 -4 5 -7 50 -7 45 0 65 3 50 7 -25 7 -25 8 -30 139 -4 115
-8 134 -25 151 -24 23 -71 32 -105 21z"/>
<path d="M3530 3041 c0 -6 10 -11 23 -11 67 0 111 -134 73 -223 -20 -49 -52
-71 -109 -78 l-52 -6 60 -2 c44 -1 69 4 93 19 40 24 72 89 72 145 0 55 -32
120 -67 138 -41 21 -93 31 -93 18z"/>
<path d="M3900 3040 c0 -5 10 -10 23 -10 27 0 64 -32 78 -67 14 -38 11 -131
-7 -168 -20 -43 -51 -63 -105 -68 -41 -3 -40 -4 12 -5 98 -3 159 60 159 163 0
57 -24 111 -60 136 -30 21 -100 35 -100 19z"/>
<path d="M1662 3033 c-22 -4 -23 -6 -8 -22 14 -15 16 -40 14 -147 -3 -127 -3
-128 -28 -135 -15 -4 6 -7 50 -7 41 1 63 3 48 5 l-28 4 0 115 c0 65 5 124 11
136 8 15 8 19 0 14 -7 -5 -11 2 -11 18 0 26 -4 27 -48 19z"/>
<path d="M1938 3017 c-81 -66 -74 -238 12 -282 16 -8 52 -15 79 -15 43 0 56 5
83 31 l33 31 -33 -26 c-45 -35 -109 -36 -140 -3 -58 62 -55 241 5 276 13 8 14
10 3 11 -8 0 -27 -10 -42 -23z"/>
<path d="M2248 3017 c-81 -66 -74 -238 12 -282 16 -8 52 -15 79 -15 43 0 56 5
83 31 l33 31 -33 -26 c-45 -35 -109 -36 -140 -3 -58 62 -55 241 5 276 13 8 14
10 3 11 -8 0 -27 -10 -42 -23z"/>
<path d="M2368 3033 c19 -7 42 -58 42 -93 0 -25 4 -30 25 -30 30 0 32 17 9 66
-18 38 -49 64 -74 63 -10 0 -11 -2 -2 -6z"/>
<path d="M3390 3031 c-21 -6 -22 -8 -7 -14 16 -6 17 -24 15 -219 l-3 -212 -25
-7 c-15 -4 5 -7 50 -7 45 0 65 3 50 7 l-25 7 -2 209 c-1 116 -3 218 -3 228 0
18 -9 19 -50 8z"/>
<path d="M3474 3024 c-19 -15 -19 -15 1 -6 11 5 27 12 35 15 13 5 13 6 -1 6
-8 1 -24 -6 -35 -15z"/>
<path d="M3766 3031 c-14 -5 -16 -10 -8 -15 9 -5 12 -67 12 -221 l0 -214 -27
-4 c-16 -2 8 -4 52 -4 44 0 69 2 55 4 -14 3 -28 10 -32 17 -12 18 -9 136 3
136 8 0 8 4 0 14 -8 9 -12 56 -11 138 1 67 1 131 1 141 -1 18 -14 20 -45 8z"/>
<path d="M3856 3031 c-4 -5 3 -7 14 -4 23 6 26 13 6 13 -8 0 -17 -4 -20 -9z"/>
<path d="M2605 3020 c-3 -6 1 -7 9 -4 18 7 21 14 7 14 -6 0 -13 -4 -16 -10z"/>
<path d="M1463 2939 c14 -8 17 -24 17 -83 0 -66 -3 -76 -26 -100 -15 -14 -31
-26 -37 -26 -6 0 -8 -2 -5 -5 7 -7 79 23 101 43 13 11 17 31 17 81 0 69 5 84
30 94 8 3 -14 6 -50 6 -49 0 -61 -2 -47 -10z"/>
<path d="M2966 2885 c-9 -26 -7 -32 5 -12 6 10 9 21 6 23 -2 3 -7 -2 -11 -11z"/>
<path d="M2927 2794 c-16 -31 -37 -59 -50 -64 -16 -6 -3 -9 48 -8 44 0 61 3
45 7 -29 8 -37 38 -21 83 18 50 7 42 -22 -18z"/>
<path d="M1328 2713 c12 -2 30 -2 40 0 9 3 -1 5 -23 4 -22 0 -30 -2 -17 -4z"/>
</g>
</svg>
